M48
;Layer_Color=9474304
;FILE_FORMAT=4:4
METRIC,LZ
;TYPE=PLATED
T1F00S00C0.3000
T2F00S00C0.6000
T3F00S00C0.7000
T4F00S00C0.8000
T5F00S00C0.9000
T6F00S00C1.0000
T8F00S00C1.1000
T9F00S00C6.5000
;TYPE=NON_PLATED
T10F00S00C3.2000
T11F00S00C4.5000
%
T01
X0112Y0001
X0121
X0126
Y0009
X0134
Y0016
Y0025
X0123425Y00246
X0117Y0021
X0112Y0026
X0106Y0022
X0102Y0026
X0099Y002
X0092Y0026
X0083
X0075
X0072Y0011
Y0006
X00804077Y00074384
X0081Y0011
X0084Y0001
X0094
X0102
X00604Y0009075
X0058975Y00091
Y001025
X0057Y0011
X0062
X006225Y0019725
X0057Y0019
X005
X0042
X0033Y0018
Y0025
X0031Y0028
X0037
Y0012
X00383Y000585
X0039175Y000585
Y0004725
X00383Y00047
X0038275Y0003525
X003915
X0032Y0004
X0031Y0009
X0067Y0026
X002895Y00273
X0027775Y0027325
X0027Y0021
X0024Y0017
X0019
X0014
X0007Y0023
X0001Y0021
X000095Y0015275
X0001Y0009
X000595Y00083
X0009Y0001
X0012
X0018Y0004
X0024
Y0011
X0029Y0015
X0001Y0027
Y0033
Y0039
Y0045
Y0051
X0005475Y00511
X0009Y0047
X0015Y0044
X0023Y0041
X0027Y0044
X0026Y0033
X002Y0036
X0014Y0032
X001Y0031
Y0035
X0011Y0059
X0001Y0057
Y0061
X0009Y0069
X002
X0027Y006
X0019Y0053
X0033Y0052
X0037Y0055
Y0046
X0034Y0041
X0037Y0036
X0031
X0034Y0032
X0060175Y0037375
Y00399
X0060025Y0043725
X006Y0047
X0064
X0063675Y004505
X006365Y00425
Y00412
Y003865
X0067Y0036
X006Y0056
X0049
X0048Y0069
X0061
X0034
X0071Y0068
X0082
X0092
X0102
X01Y0057
X0087
X0073
X008Y0047
Y0037
X0095
X0093Y0047
X0108Y0046
X0109Y0036
X01227Y003585
X0123Y0046
X0134Y0043
Y0052
Y0061
X0127Y0062
X0126Y0069
X0119Y0068
X0111
X0117Y0057
X0134Y0034
T02
X0075035Y000374
X0076305
X0077575
X0078845
X0080115
X00801148Y000501
X00788448
X00775748
X00763048
X00750348
T03
X0109495Y000935
X0108225
X0106955
X0100495Y0009525
X0099225
X0097955
T04
X011325Y0002765
Y0010385
X011294Y001546
X011548
X011802
Y0018
X011548
X011294
X01104
Y001546
X010786
Y0018
X010532
Y001546
X010278
Y0018
X010024
Y001546
X00977
Y0018
X009516
Y001546
X009262
Y0018
X009008
Y001546
X008754
Y0018
X0085
Y001546
X008246
Y0018
X007992
Y001546
X007738
Y0018
X007484
Y001546
X00723
Y0018
X006976
Y001546
X0095225Y0010335
Y0002715
X010405Y000274
Y001036
X0056885Y0013375
X005691Y00158
X004929
X0049265Y0013375
X002441Y0028175
X001679
X001679Y0031175
X001679Y003415
X00168Y0038225
X001426
X001172
X001934
X002188
X002442
X002696
X002441Y003415
X002441Y0031175
X002362Y0049
X002108
X001854
X0016
X001346
T05
X0109345Y00039
X0116Y0003925
X011854
X012335
X0106805Y00039
X0100495Y000395
X0097955
X0046345Y0014925
X0043805
X004042Y001495
X003788
X0004625Y0015175
Y0017715
Y0012635
Y002735
X0004775Y00332
X0004625Y0039075
T06
X008505Y0002975
Y0007475
X009155
Y0002975
X005637Y002343
Y002597
Y002851
X004113
Y002597
Y002343
X003465Y002446
Y002192
Y001938
Y001684
Y00143
Y001176
Y000922
Y000668
Y000414
X002195
Y000668
Y000922
Y001176
Y00143
Y001684
Y001938
Y002192
Y002446
X001604Y0020875
X00135
X001096
X004113Y003105
Y003359
Y003613
Y003867
Y004121
Y004375
Y004629
Y004883
Y005137
X005637
Y004883
Y004629
Y004375
Y004121
Y003867
Y003613
Y003359
Y003105
T08
X004293Y000435
Y000689
X004547
Y000435
X004801
Y000689
X005055
Y000435
X005309
X005563
Y000689
X005309
X005817
X006071
X006325
X006579
Y000435
X006325
X006071
X005817
T09
X0041875Y006265
T10
X0131Y0004
X012289Y001673
X006489
X0004Y0004
Y0066
X002743Y006551
Y005027
X006489Y006573
X012289
X0131Y0066
T11
X0054675Y006205
M30
