G04*
G04 #@! TF.GenerationSoftware,Altium Limited,Altium Designer,20.1.14 (287)*
G04*
G04 Layer_Color=16711935*
%FSLAX44Y44*%
%MOMM*%
G71*
G04*
G04 #@! TF.SameCoordinates,9E3E63A2-1E6E-47A1-B23A-5F7B0E76B0C2*
G04*
G04*
G04 #@! TF.FilePolarity,Negative*
G04*
G01*
G75*
%ADD19C,1.9000*%
%ADD20R,1.9000X1.9000*%
%ADD21C,4.2000*%
%ADD22C,5.2000*%
%ADD23C,1.1000*%
%ADD24R,1.1000X1.1000*%
%ADD25O,2.1000X4.1000*%
%ADD26O,4.1000X2.1000*%
%ADD27O,4.6000X2.1000*%
%ADD28R,1.9000X1.9000*%
%ADD29C,1.7000*%
%ADD30C,2.1000*%
%ADD31O,1.1500X2.1000*%
%ADD32C,5.5000*%
%ADD33C,11.1000*%
%ADD34C,7.2000*%
G36*
X79999Y40001D02*
X80000Y39999D01*
Y0D01*
X0D01*
Y80000D01*
X40001Y80001D01*
X42622Y80001D01*
X47821Y79317D01*
X52886Y77959D01*
X57730Y75953D01*
X62271Y73331D01*
X66431Y70139D01*
X70138Y66431D01*
X73330Y62271D01*
X75952Y57730D01*
X77958Y52886D01*
X79315Y47821D01*
X79999Y42622D01*
X79999Y40001D01*
X79999D01*
D02*
G37*
G36*
X40001Y620001D02*
X39999Y620000D01*
X0D01*
Y700000D01*
X80000D01*
X80001Y659999D01*
X80001Y657378D01*
X79317Y652179D01*
X77959Y647114D01*
X75953Y642270D01*
X73331Y637729D01*
X70139Y633569D01*
X66431Y629862D01*
X62271Y626670D01*
X57730Y624048D01*
X52886Y622042D01*
X47821Y620685D01*
X42622Y620000D01*
X40001Y620001D01*
D01*
D02*
G37*
G36*
X1309426Y79571D02*
X1309427Y79572D01*
X1349427D01*
Y-428D01*
X1269427D01*
X1269426Y39572D01*
X1269426Y42194D01*
X1270110Y47393D01*
X1271467Y52457D01*
X1273474Y57302D01*
X1276096Y61842D01*
X1279288Y66002D01*
X1282996Y69710D01*
X1287156Y72902D01*
X1291697Y75524D01*
X1296541Y77530D01*
X1301606Y78887D01*
X1306805Y79571D01*
X1309426Y79571D01*
X1309426Y79571D01*
D02*
G37*
G36*
X1270001Y659999D02*
X1270000Y660001D01*
Y700000D01*
X1350000D01*
Y620000D01*
X1309999Y619999D01*
X1307378Y619999D01*
X1302179Y620683D01*
X1297114Y622040D01*
X1292270Y624047D01*
X1287729Y626669D01*
X1283569Y629861D01*
X1279862Y633569D01*
X1276670Y637729D01*
X1274048Y642270D01*
X1272042Y647114D01*
X1270685Y652179D01*
X1270001Y657378D01*
X1270001Y659999D01*
Y659999D01*
D02*
G37*
D19*
X160000Y490000D02*
D03*
X185400D02*
D03*
X210800D02*
D03*
X134600D02*
D03*
X1180200Y154600D02*
D03*
X1154800Y180000D02*
D03*
Y154600D02*
D03*
X1129400Y180000D02*
D03*
Y154600D02*
D03*
X1104000Y180000D02*
D03*
Y154600D02*
D03*
X1078600Y180000D02*
D03*
Y154600D02*
D03*
X1053200Y180000D02*
D03*
Y154600D02*
D03*
X1027800Y180000D02*
D03*
Y154600D02*
D03*
X1002400Y180000D02*
D03*
Y154600D02*
D03*
X977000Y180000D02*
D03*
Y154600D02*
D03*
X951600Y180000D02*
D03*
Y154600D02*
D03*
X926200Y180000D02*
D03*
Y154600D02*
D03*
X900800Y180000D02*
D03*
Y154600D02*
D03*
X875400Y180000D02*
D03*
Y154600D02*
D03*
X850000Y180000D02*
D03*
Y154600D02*
D03*
X824600Y180000D02*
D03*
Y154600D02*
D03*
X799200Y180000D02*
D03*
Y154600D02*
D03*
X773800Y180000D02*
D03*
Y154600D02*
D03*
X748400Y180000D02*
D03*
Y154600D02*
D03*
X723000Y180000D02*
D03*
Y154600D02*
D03*
X697600Y180000D02*
D03*
Y154600D02*
D03*
X219500Y244600D02*
D03*
Y41400D02*
D03*
Y92200D02*
D03*
Y219200D02*
D03*
Y193800D02*
D03*
Y168400D02*
D03*
Y143000D02*
D03*
Y117600D02*
D03*
Y66800D02*
D03*
X346500Y244600D02*
D03*
Y219200D02*
D03*
Y193800D02*
D03*
Y168400D02*
D03*
Y117600D02*
D03*
Y41400D02*
D03*
Y66800D02*
D03*
Y92200D02*
D03*
Y143000D02*
D03*
X1233500Y39250D02*
D03*
X218800Y382250D02*
D03*
X142600D02*
D03*
X168000D02*
D03*
X193400D02*
D03*
X269600D02*
D03*
X244200D02*
D03*
X46250Y177150D02*
D03*
Y151750D02*
D03*
X46250Y390750D02*
D03*
X47750Y332000D02*
D03*
X46250Y273500D02*
D03*
X657900Y68900D02*
D03*
X632500D02*
D03*
X607100D02*
D03*
X657900Y43500D02*
D03*
X632500D02*
D03*
X607100D02*
D03*
X429300Y68900D02*
D03*
X454700Y43500D02*
D03*
Y68900D02*
D03*
X480100Y43500D02*
D03*
Y68900D02*
D03*
X505500Y43500D02*
D03*
Y68900D02*
D03*
X530900Y43500D02*
D03*
X556300D02*
D03*
X530900Y68900D02*
D03*
X556300D02*
D03*
X581700Y43500D02*
D03*
Y68900D02*
D03*
X563700Y234300D02*
D03*
Y412100D02*
D03*
Y361300D02*
D03*
Y335900D02*
D03*
Y310500D02*
D03*
Y285100D02*
D03*
Y259700D02*
D03*
Y386700D02*
D03*
Y437500D02*
D03*
Y462900D02*
D03*
Y488300D02*
D03*
Y513700D02*
D03*
X411300Y335900D02*
D03*
Y386700D02*
D03*
Y412100D02*
D03*
Y437500D02*
D03*
Y462900D02*
D03*
Y488300D02*
D03*
Y361300D02*
D03*
Y310500D02*
D03*
Y285100D02*
D03*
Y259700D02*
D03*
Y234300D02*
D03*
Y513700D02*
D03*
X109600Y208750D02*
D03*
X135000D02*
D03*
X160400D02*
D03*
X1185400Y39250D02*
D03*
X1160000D02*
D03*
X1093450Y39000D02*
D03*
X1068050D02*
D03*
X1004950Y39500D02*
D03*
X979550D02*
D03*
X438050Y149250D02*
D03*
X463450D02*
D03*
X378800Y149500D02*
D03*
X404200D02*
D03*
D20*
X236200Y490000D02*
D03*
X1180200Y180000D02*
D03*
X117200Y382250D02*
D03*
X429300Y43500D02*
D03*
D21*
X274300Y502700D02*
D03*
Y655100D02*
D03*
D22*
X1228900Y167300D02*
D03*
X648900D02*
D03*
X1228900Y657300D02*
D03*
X648900D02*
D03*
D23*
X775748Y50100D02*
D03*
X775750Y37400D02*
D03*
X788448Y50100D02*
D03*
X788450Y37400D02*
D03*
X801150D02*
D03*
X763048Y50100D02*
D03*
X763050Y37400D02*
D03*
X750348Y50100D02*
D03*
X750350Y37400D02*
D03*
D24*
X801148Y50100D02*
D03*
D25*
X184000Y110750D02*
D03*
D26*
X137000Y80750D02*
D03*
D27*
Y140750D02*
D03*
D28*
X46250Y126350D02*
D03*
D29*
X569100Y158000D02*
D03*
X492900D02*
D03*
X568850Y133750D02*
D03*
X492650D02*
D03*
X167900Y281750D02*
D03*
X244100D02*
D03*
Y341500D02*
D03*
X167900D02*
D03*
X244100Y311750D02*
D03*
X167900D02*
D03*
X1132500Y103850D02*
D03*
Y27650D02*
D03*
X1040500Y27400D02*
D03*
Y103600D02*
D03*
X952250Y27150D02*
D03*
Y103350D02*
D03*
D30*
X915500Y29750D02*
D03*
Y74750D02*
D03*
X850500D02*
D03*
Y29750D02*
D03*
D31*
X1069550Y93500D02*
D03*
X1094950D02*
D03*
X1082250D02*
D03*
X979550Y95250D02*
D03*
X1004950D02*
D03*
X992250D02*
D03*
D32*
X546750Y620500D02*
D03*
D33*
X418750Y626500D02*
D03*
D34*
X1310000Y660000D02*
D03*
Y40000D02*
D03*
X40000Y660000D02*
D03*
Y40000D02*
D03*
M02*
